# xmcd
#
# Track frame offsets:
# 150
# 16397
# 42218
# 54296
# 68709
# 84262
# 105482
# 122811
# 139341
# 158455
# 173009
#
# Disc length: 2587 seconds
#
#
# Revision: 0
# Processed by: cddbd v1.5.2PL0 Copyright (c) Steve Scherf et al.
# Submitted via: FreeRIP 2.951 
#
DISCID=7f0a190b
DTITLE=I'll Fly Away: Country Hymns and Songs Of Faith
DYEAR=1900
DGENRE=Gospel
TTITLE0=I'll Fly Away - Kortnie Heying
TTITLE1=It Is Well With My Soul - Sara Watkins and Vince Gill
TTITLE2=River Of Happiness - Dolly Parton
TTITLE3=Come Thou Fount Of Every Blessing - Ronnie Freeman
TTITLE4=Get Right Church - Marty Stuart
TTITLE5=He Leadeth Me - Sara Watkins
TTITLE6=Crown Him With Many Crowns - Kortnie Heying
TTITLE7=Uncloudy Day - Ed Cash
TTITLE8='Tis So Sweet To Trust In Jesus - I'll Fly Away: Country Hymns and Songs Of Faith (instrumental)
TTITLE9=Nothing But The Blood Of Jesus - Ronnie Freeman
TTITLE10=Holy! Holy! Holy! - Kortnie Heying
EXTD=
EXTT0=
EXTT1=
EXTT2=
EXTT3=
EXTT4=
EXTT5=
EXTT6=
EXTT7=
EXTT8=
EXTT9=
EXTT10=
PLAYORDER=
